<?xml version="1.0" encoding="UTF-8"?>
<svg id="Camada_1" data-name="Camada 1" xmlns="http://www.w3.org/2000/svg" width="96" height="96" viewBox="0 0 96 96">
  <rect x="-1" y="-1" width="98" height="98" style="fill: #fff;"/>
  <path d="m28.42748,41.08361v-2.29658c0-.61611-.2814-.8116-.90046-.8116h-11.22815c-.61907,0-.90046.30805-1.04067.86788l-2.25116,8.23351c-.42259,1.65282-.81654,4.78964-.81654,4.78964,0,0-.2814-3.13681-.73163-4.78964l-2.22252-8.23647c-.16884-.53218-.42259-.86788-1.04165-.86788h-3.4893c-.61907,0-.81654.30805-.6477.86788l5.34749,18.26598c.16884.59241.47788.89652,1.09695.89652h3.18026c.61907,0,.92811-.30805,1.09695-.89652l4.44308-15.17952h8.30164c.65066-.00296.90342-.22314.90342-.8432Zm-.78988,5.48967v2.15637c0,.61611-.25276.86788-.87183.84024h-7.90571c-.59241,0-.78988-.19747-.61907-.78396l.64671-2.21265c.16884-.59241.50651-.81259,1.09793-.81259h6.75348c.6477,0,.90046.19648.90046.81259h-.00197Zm-10.07097,7.42191h9.96039c.61907,0,.90046.22413.90046.8116v2.29954c0,.61611-.2814.84024-.90046.84024h-11.11559c-.61907,0-.81555-.19747-.64671-.8116l.67535-2.29954c.16884-.61611.50651-.84024,1.12558-.84024h.00099Zm23.104-16.01976h2.89886c.61907,0,.81555.25177.78988.86788v18.26302c0,.61611-.19747.86887-.81654.86887h-2.90182c-.42259,0-.61907-.11256-.78988-.42061l-4.72743-7.81389c-.4838-.77408-.88862-1.75255-1.21938-2.54638l-.04739-.11453v9.97224c0,.61611-.19747.86887-.81555.86887h-2.89688c-.61907,0-.84418-.25276-.84418-.86887v-18.23635c0-.61611.22512-.86887.84418-.86887h2.89886c.36532,0,.61907.14021.73163.36433l5.00883,8.31843c.29621.49368.59241,1.1789.85702,1.79105.06319.14514.12441.28633.18365.42061v-10.00087c0-.61314.22511-.86492.84418-.86492h.00197Zm12.12663,19.99681c5.57162,0,7.57001-2.52071,7.57001-5.04141v-9.91399c0-2.54934-2.02604-5.04141-7.57001-5.04141h-6.66856c-.62006,0-.84517.25177-.84517.86788v18.23241c0,.58747.19747.89652.73262.89652h6.78112Zm-.02765-16.01976c1.46325,0,2.70139.55983,2.70139,1.90361v8.26215c0,1.34477-1.26677,1.9046-2.70139,1.9046h-2.6451v-12.07036h2.6451Zm23.55324,11.20445c0,2.54835-2.02604,5.03549-7.57001,5.03549s-7.54138-2.49207-7.45647-5.01278v-14.33929c0-.61611.22512-.86788.84418-.86788h3.17927c.61907,0,.81654.25177.81654.86788v13.47437c0,1.34379,1.2095,1.9046,2.64511,1.9046,1.46325,0,2.70139-.56081,2.70139-1.9046v-13.47437c0-.61611.22512-.86788.84418-.86788h3.18026c.61907,0,.81555.25177.81555.86788v14.31658Zm7.01019-8.17822l4.95255,1.6785c2.17217.72768,3.68677,2.27091,3.71441,4.45295v2.10009c0,2.54934-1.80093,5.04141-7.34391,5.04141-5.5726,0-7.42981-2.52071-7.42981-5.04141v-1.95989c0-.64474.22512-.89651.84418-.89651h3.0677c.61907,0,.81555.28041.81555.89651v1.31416c0,1.34477,1.15421,1.84832,2.58883,1.84832s2.61747-.50355,2.61747-1.84832v-.59241c0-1.01598-1.35267-1.52052-2.46838-1.93521l-.06615-.02468-4.24561-1.59655c-1.52446-.5539-2.76063-2.20672-2.76063-3.91484v-1.71108c0-2.54934,1.54816-5.04141,7.01019-5.04141s7.11485,2.52367,7.11485,5.04141v1.09201c0,.64375-.22512.89651-.84418.89651h-3.0677c-.61907,0-.81654-.28041-.81654-.89651v-.44826c0-1.34477-.95575-1.84832-2.30744-1.84832s-2.33509.50355-2.33509,1.84832v.28041c0,.78692.61907,1.14928.95675,1.26282l.00296.00197Z" style="fill: #1589f6; fill-rule: evenodd;"/>
</svg>